<svg xmlns="http://www.w3.org/2000/svg" viewBox="0 0 32 32" shape-rendering="crispEdges"><rect x="3" y="10" width="26" height="1" fill="#16234f"/><rect x="2" y="11" width="2" height="1" fill="#16234f"/><rect x="4" y="11" width="24" height="1" fill="#ffffff"/><rect x="28" y="11" width="2" height="1" fill="#16234f"/><rect x="2" y="12" width="1" height="1" fill="#16234f"/><rect x="3" y="12" width="26" height="1" fill="#ffffff"/><rect x="29" y="12" width="1" height="1" fill="#16234f"/><rect x="2" y="13" width="1" height="1" fill="#16234f"/><rect x="3" y="13" width="6" height="1" fill="#ffffff"/><rect x="9" y="13" width="3" height="1" fill="#16234f"/><rect x="12" y="13" width="10" height="1" fill="#ffffff"/><rect x="22" y="13" width="1" height="1" fill="#16234f"/><rect x="23" y="13" width="6" height="1" fill="#ffffff"/><rect x="29" y="13" width="1" height="1" fill="#16234f"/><rect x="2" y="14" width="1" height="1" fill="#16234f"/><rect x="3" y="14" width="6" height="1" fill="#ffffff"/><rect x="9" y="14" width="3" height="1" fill="#16234f"/><rect x="12" y="14" width="9" height="1" fill="#ffffff"/><rect x="21" y="14" width="3" height="1" fill="#16234f"/><rect x="24" y="14" width="5" height="1" fill="#ffffff"/><rect x="29" y="14" width="1" height="1" fill="#16234f"/><rect x="2" y="15" width="1" height="1" fill="#16234f"/><rect x="3" y="15" width="4" height="1" fill="#ffffff"/><rect x="7" y="15" width="7" height="1" fill="#16234f"/><rect x="14" y="15" width="6" height="1" fill="#ffffff"/><rect x="20" y="15" width="5" height="1" fill="#16234f"/><rect x="25" y="15" width="1" height="1" fill="#ffffff"/><rect x="26" y="15" width="1" height="1" fill="#16234f"/><rect x="27" y="15" width="2" height="1" fill="#ffffff"/><rect x="29" y="15" width="1" height="1" fill="#16234f"/><rect x="2" y="16" width="1" height="1" fill="#16234f"/><rect x="3" y="16" width="4" height="1" fill="#ffffff"/><rect x="7" y="16" width="7" height="1" fill="#16234f"/><rect x="14" y="16" width="7" height="1" fill="#ffffff"/><rect x="21" y="16" width="3" height="1" fill="#16234f"/><rect x="24" y="16" width="1" height="1" fill="#ffffff"/><rect x="25" y="16" width="3" height="1" fill="#16234f"/><rect x="28" y="16" width="1" height="1" fill="#ffffff"/><rect x="29" y="16" width="1" height="1" fill="#16234f"/><rect x="2" y="17" width="1" height="1" fill="#16234f"/><rect x="3" y="17" width="6" height="1" fill="#ffffff"/><rect x="9" y="17" width="3" height="1" fill="#16234f"/><rect x="12" y="17" width="10" height="1" fill="#ffffff"/><rect x="22" y="17" width="1" height="1" fill="#16234f"/><rect x="23" y="17" width="1" height="1" fill="#ffffff"/><rect x="24" y="17" width="6" height="1" fill="#16234f"/><rect x="2" y="18" width="1" height="1" fill="#16234f"/><rect x="3" y="18" width="6" height="1" fill="#ffffff"/><rect x="9" y="18" width="3" height="1" fill="#16234f"/><rect x="12" y="18" width="13" height="1" fill="#ffffff"/><rect x="25" y="18" width="3" height="1" fill="#16234f"/><rect x="28" y="18" width="1" height="1" fill="#ffffff"/><rect x="29" y="18" width="1" height="1" fill="#16234f"/><rect x="2" y="19" width="1" height="1" fill="#16234f"/><rect x="3" y="19" width="23" height="1" fill="#ffffff"/><rect x="26" y="19" width="1" height="1" fill="#16234f"/><rect x="27" y="19" width="2" height="1" fill="#ffffff"/><rect x="29" y="19" width="1" height="1" fill="#16234f"/><rect x="2" y="20" width="1" height="1" fill="#16234f"/><rect x="3" y="20" width="26" height="1" fill="#ffffff"/><rect x="29" y="20" width="1" height="1" fill="#16234f"/><rect x="2" y="21" width="2" height="1" fill="#16234f"/><rect x="4" y="21" width="24" height="1" fill="#ffffff"/><rect x="28" y="21" width="2" height="1" fill="#16234f"/><rect x="3" y="22" width="26" height="1" fill="#16234f"/></svg>