<svg xmlns="http://www.w3.org/2000/svg" viewBox="0 0 32 32" shape-rendering="crispEdges"><rect x="2" y="2" width="14" height="1" fill="#16234f"/><rect x="1" y="3" width="2" height="1" fill="#16234f"/><rect x="3" y="3" width="12" height="1" fill="#ffffff"/><rect x="15" y="3" width="2" height="1" fill="#16234f"/><rect x="1" y="4" width="1" height="1" fill="#16234f"/><rect x="2" y="4" width="14" height="1" fill="#ffffff"/><rect x="16" y="4" width="1" height="1" fill="#16234f"/><rect x="1" y="5" width="1" height="1" fill="#16234f"/><rect x="2" y="5" width="14" height="1" fill="#ffffff"/><rect x="16" y="5" width="1" height="1" fill="#16234f"/><rect x="1" y="6" width="1" height="1" fill="#16234f"/><rect x="2" y="6" width="3" height="1" fill="#ffffff"/><rect x="5" y="6" width="8" height="1" fill="#16234f"/><rect x="13" y="6" width="3" height="1" fill="#ffffff"/><rect x="16" y="6" width="1" height="1" fill="#16234f"/><rect x="1" y="7" width="1" height="1" fill="#16234f"/><rect x="2" y="7" width="14" height="1" fill="#ffffff"/><rect x="16" y="7" width="1" height="1" fill="#16234f"/><rect x="1" y="8" width="1" height="1" fill="#16234f"/><rect x="2" y="8" width="14" height="1" fill="#ffffff"/><rect x="16" y="8" width="1" height="1" fill="#16234f"/><rect x="1" y="9" width="1" height="1" fill="#16234f"/><rect x="2" y="9" width="3" height="1" fill="#ffffff"/><rect x="5" y="9" width="6" height="1" fill="#16234f"/><rect x="11" y="9" width="5" height="1" fill="#ffffff"/><rect x="16" y="9" width="1" height="1" fill="#16234f"/><rect x="1" y="10" width="1" height="1" fill="#16234f"/><rect x="2" y="10" width="14" height="1" fill="#ffffff"/><rect x="16" y="10" width="1" height="1" fill="#16234f"/><rect x="1" y="11" width="2" height="1" fill="#16234f"/><rect x="3" y="11" width="12" height="1" fill="#ffffff"/><rect x="15" y="11" width="2" height="1" fill="#16234f"/><rect x="2" y="12" width="3" height="1" fill="#16234f"/><rect x="5" y="12" width="1" height="1" fill="#ffffff"/><rect x="6" y="12" width="10" height="1" fill="#16234f"/><rect x="4" y="13" width="2" height="1" fill="#16234f"/><rect x="6" y="13" width="1" height="1" fill="#ffffff"/><rect x="7" y="13" width="1" height="1" fill="#16234f"/><rect x="23" y="13" width="3" height="1" fill="#16234f"/><rect x="5" y="14" width="3" height="1" fill="#16234f"/><rect x="23" y="14" width="1" height="1" fill="#16234f"/><rect x="24" y="14" width="1" height="1" fill="#ffffff"/><rect x="25" y="14" width="2" height="1" fill="#16234f"/><rect x="17" y="15" width="8" height="1" fill="#16234f"/><rect x="25" y="15" width="1" height="1" fill="#ffffff"/><rect x="26" y="15" width="4" height="1" fill="#16234f"/><rect x="16" y="16" width="2" height="1" fill="#16234f"/><rect x="18" y="16" width="11" height="1" fill="#ffffff"/><rect x="29" y="16" width="2" height="1" fill="#16234f"/><rect x="16" y="17" width="1" height="1" fill="#16234f"/><rect x="17" y="17" width="13" height="1" fill="#ffffff"/><rect x="30" y="17" width="1" height="1" fill="#16234f"/><rect x="16" y="18" width="1" height="1" fill="#16234f"/><rect x="17" y="18" width="13" height="1" fill="#ffffff"/><rect x="30" y="18" width="1" height="1" fill="#16234f"/><rect x="16" y="19" width="1" height="1" fill="#16234f"/><rect x="17" y="19" width="3" height="1" fill="#ffffff"/><rect x="20" y="19" width="8" height="1" fill="#16234f"/><rect x="28" y="19" width="2" height="1" fill="#ffffff"/><rect x="30" y="19" width="1" height="1" fill="#16234f"/><rect x="16" y="20" width="1" height="1" fill="#16234f"/><rect x="17" y="20" width="13" height="1" fill="#ffffff"/><rect x="30" y="20" width="1" height="1" fill="#16234f"/><rect x="16" y="21" width="1" height="1" fill="#16234f"/><rect x="17" y="21" width="13" height="1" fill="#ffffff"/><rect x="30" y="21" width="1" height="1" fill="#16234f"/><rect x="16" y="22" width="1" height="1" fill="#16234f"/><rect x="17" y="22" width="3" height="1" fill="#ffffff"/><rect x="20" y="22" width="6" height="1" fill="#16234f"/><rect x="26" y="22" width="4" height="1" fill="#ffffff"/><rect x="30" y="22" width="1" height="1" fill="#16234f"/><rect x="16" y="23" width="1" height="1" fill="#16234f"/><rect x="17" y="23" width="13" height="1" fill="#ffffff"/><rect x="30" y="23" width="1" height="1" fill="#16234f"/><rect x="16" y="24" width="2" height="1" fill="#16234f"/><rect x="18" y="24" width="11" height="1" fill="#ffffff"/><rect x="29" y="24" width="2" height="1" fill="#16234f"/><rect x="17" y="25" width="13" height="1" fill="#16234f"/></svg>