<svg xmlns="http://www.w3.org/2000/svg" viewBox="0 0 32 32" shape-rendering="crispEdges"><rect x="15" y="3" width="3" height="1" fill="#16234f"/><rect x="11" y="4" width="11" height="1" fill="#16234f"/><rect x="9" y="5" width="15" height="1" fill="#16234f"/><rect x="8" y="6" width="8" height="1" fill="#16234f"/><rect x="16" y="6" width="1" height="1" fill="#ffffff"/><rect x="17" y="6" width="8" height="1" fill="#16234f"/><rect x="7" y="7" width="5" height="1" fill="#16234f"/><rect x="12" y="7" width="9" height="1" fill="#ffffff"/><rect x="21" y="7" width="5" height="1" fill="#16234f"/><rect x="6" y="8" width="4" height="1" fill="#16234f"/><rect x="10" y="8" width="13" height="1" fill="#ffffff"/><rect x="23" y="8" width="4" height="1" fill="#16234f"/><rect x="5" y="9" width="4" height="1" fill="#16234f"/><rect x="9" y="9" width="15" height="1" fill="#ffffff"/><rect x="24" y="9" width="4" height="1" fill="#16234f"/><rect x="5" y="10" width="3" height="1" fill="#16234f"/><rect x="8" y="10" width="4" height="1" fill="#ffffff"/><rect x="12" y="10" width="1" height="1" fill="#16234f"/><rect x="13" y="10" width="6" height="1" fill="#ffffff"/><rect x="19" y="10" width="1" height="1" fill="#16234f"/><rect x="20" y="10" width="5" height="1" fill="#ffffff"/><rect x="25" y="10" width="3" height="1" fill="#16234f"/><rect x="4" y="11" width="4" height="1" fill="#16234f"/><rect x="8" y="11" width="5" height="1" fill="#ffffff"/><rect x="13" y="11" width="1" height="1" fill="#16234f"/><rect x="14" y="11" width="4" height="1" fill="#ffffff"/><rect x="18" y="11" width="1" height="1" fill="#16234f"/><rect x="19" y="11" width="6" height="1" fill="#ffffff"/><rect x="25" y="11" width="4" height="1" fill="#16234f"/><rect x="4" y="12" width="3" height="1" fill="#16234f"/><rect x="7" y="12" width="7" height="1" fill="#ffffff"/><rect x="14" y="12" width="1" height="1" fill="#16234f"/><rect x="15" y="12" width="2" height="1" fill="#ffffff"/><rect x="17" y="12" width="1" height="1" fill="#16234f"/><rect x="18" y="12" width="8" height="1" fill="#ffffff"/><rect x="26" y="12" width="3" height="1" fill="#16234f"/><rect x="4" y="13" width="3" height="1" fill="#16234f"/><rect x="7" y="13" width="8" height="1" fill="#ffffff"/><rect x="15" y="13" width="2" height="1" fill="#16234f"/><rect x="17" y="13" width="9" height="1" fill="#ffffff"/><rect x="26" y="13" width="3" height="1" fill="#16234f"/><rect x="4" y="14" width="3" height="1" fill="#16234f"/><rect x="7" y="14" width="8" height="1" fill="#ffffff"/><rect x="15" y="14" width="2" height="1" fill="#16234f"/><rect x="17" y="14" width="9" height="1" fill="#ffffff"/><rect x="26" y="14" width="3" height="1" fill="#16234f"/><rect x="3" y="15" width="4" height="1" fill="#16234f"/><rect x="7" y="15" width="8" height="1" fill="#ffffff"/><rect x="15" y="15" width="2" height="1" fill="#16234f"/><rect x="17" y="15" width="9" height="1" fill="#ffffff"/><rect x="26" y="15" width="4" height="1" fill="#16234f"/><rect x="3" y="16" width="3" height="1" fill="#16234f"/><rect x="6" y="16" width="5" height="1" fill="#ffffff"/><rect x="11" y="16" width="10" height="1" fill="#16234f"/><rect x="21" y="16" width="6" height="1" fill="#ffffff"/><rect x="27" y="16" width="3" height="1" fill="#16234f"/><rect x="3" y="17" width="4" height="1" fill="#16234f"/><rect x="7" y="17" width="4" height="1" fill="#ffffff"/><rect x="11" y="17" width="10" height="1" fill="#16234f"/><rect x="21" y="17" width="5" height="1" fill="#ffffff"/><rect x="26" y="17" width="4" height="1" fill="#16234f"/><rect x="4" y="18" width="3" height="1" fill="#16234f"/><rect x="7" y="18" width="8" height="1" fill="#ffffff"/><rect x="15" y="18" width="2" height="1" fill="#16234f"/><rect x="17" y="18" width="9" height="1" fill="#ffffff"/><rect x="26" y="18" width="3" height="1" fill="#16234f"/><rect x="4" y="19" width="3" height="1" fill="#16234f"/><rect x="7" y="19" width="4" height="1" fill="#ffffff"/><rect x="11" y="19" width="10" height="1" fill="#16234f"/><rect x="21" y="19" width="5" height="1" fill="#ffffff"/><rect x="26" y="19" width="3" height="1" fill="#16234f"/><rect x="4" y="20" width="3" height="1" fill="#16234f"/><rect x="7" y="20" width="4" height="1" fill="#ffffff"/><rect x="11" y="20" width="10" height="1" fill="#16234f"/><rect x="21" y="20" width="5" height="1" fill="#ffffff"/><rect x="26" y="20" width="3" height="1" fill="#16234f"/><rect x="4" y="21" width="4" height="1" fill="#16234f"/><rect x="8" y="21" width="7" height="1" fill="#ffffff"/><rect x="15" y="21" width="2" height="1" fill="#16234f"/><rect x="17" y="21" width="8" height="1" fill="#ffffff"/><rect x="25" y="21" width="4" height="1" fill="#16234f"/><rect x="5" y="22" width="3" height="1" fill="#16234f"/><rect x="8" y="22" width="17" height="1" fill="#ffffff"/><rect x="25" y="22" width="3" height="1" fill="#16234f"/><rect x="5" y="23" width="4" height="1" fill="#16234f"/><rect x="9" y="23" width="15" height="1" fill="#ffffff"/><rect x="24" y="23" width="4" height="1" fill="#16234f"/><rect x="6" y="24" width="4" height="1" fill="#16234f"/><rect x="10" y="24" width="13" height="1" fill="#ffffff"/><rect x="23" y="24" width="4" height="1" fill="#16234f"/><rect x="7" y="25" width="5" height="1" fill="#16234f"/><rect x="12" y="25" width="9" height="1" fill="#ffffff"/><rect x="21" y="25" width="5" height="1" fill="#16234f"/><rect x="8" y="26" width="8" height="1" fill="#16234f"/><rect x="16" y="26" width="1" height="1" fill="#ffffff"/><rect x="17" y="26" width="8" height="1" fill="#16234f"/><rect x="9" y="27" width="15" height="1" fill="#16234f"/><rect x="11" y="28" width="11" height="1" fill="#16234f"/><rect x="15" y="29" width="3" height="1" fill="#16234f"/></svg>