<svg xmlns="http://www.w3.org/2000/svg" viewBox="0 0 32 32" shape-rendering="crispEdges"><rect x="9" y="2" width="1" height="1" fill="#16234f"/><rect x="22" y="2" width="1" height="1" fill="#16234f"/><rect x="10" y="3" width="1" height="1" fill="#16234f"/><rect x="21" y="3" width="1" height="1" fill="#16234f"/><rect x="10" y="4" width="1" height="1" fill="#16234f"/><rect x="21" y="4" width="1" height="1" fill="#16234f"/><rect x="11" y="5" width="1" height="1" fill="#16234f"/><rect x="20" y="5" width="1" height="1" fill="#16234f"/><rect x="12" y="6" width="1" height="1" fill="#16234f"/><rect x="19" y="6" width="1" height="1" fill="#16234f"/><rect x="13" y="7" width="1" height="1" fill="#16234f"/><rect x="18" y="7" width="1" height="1" fill="#16234f"/><rect x="4" y="8" width="24" height="1" fill="#16234f"/><rect x="3" y="9" width="2" height="1" fill="#16234f"/><rect x="5" y="9" width="9" height="1" fill="#ffffff"/><rect x="14" y="9" width="1" height="1" fill="#16234f"/><rect x="15" y="9" width="2" height="1" fill="#ffffff"/><rect x="17" y="9" width="1" height="1" fill="#16234f"/><rect x="18" y="9" width="9" height="1" fill="#ffffff"/><rect x="27" y="9" width="2" height="1" fill="#16234f"/><rect x="3" y="10" width="1" height="1" fill="#16234f"/><rect x="4" y="10" width="24" height="1" fill="#ffffff"/><rect x="28" y="10" width="1" height="1" fill="#16234f"/><rect x="3" y="11" width="1" height="1" fill="#16234f"/><rect x="4" y="11" width="24" height="1" fill="#ffffff"/><rect x="28" y="11" width="1" height="1" fill="#16234f"/><rect x="3" y="12" width="1" height="1" fill="#16234f"/><rect x="4" y="12" width="3" height="1" fill="#ffffff"/><rect x="7" y="12" width="14" height="1" fill="#16234f"/><rect x="21" y="12" width="7" height="1" fill="#ffffff"/><rect x="28" y="12" width="1" height="1" fill="#16234f"/><rect x="3" y="13" width="1" height="1" fill="#16234f"/><rect x="4" y="13" width="3" height="1" fill="#ffffff"/><rect x="7" y="13" width="14" height="1" fill="#16234f"/><rect x="21" y="13" width="2" height="1" fill="#ffffff"/><rect x="23" y="13" width="3" height="1" fill="#16234f"/><rect x="26" y="13" width="2" height="1" fill="#ffffff"/><rect x="28" y="13" width="1" height="1" fill="#16234f"/><rect x="3" y="14" width="1" height="1" fill="#16234f"/><rect x="4" y="14" width="3" height="1" fill="#ffffff"/><rect x="7" y="14" width="14" height="1" fill="#16234f"/><rect x="21" y="14" width="2" height="1" fill="#ffffff"/><rect x="23" y="14" width="3" height="1" fill="#16234f"/><rect x="26" y="14" width="2" height="1" fill="#ffffff"/><rect x="28" y="14" width="1" height="1" fill="#16234f"/><rect x="3" y="15" width="1" height="1" fill="#16234f"/><rect x="4" y="15" width="3" height="1" fill="#ffffff"/><rect x="7" y="15" width="14" height="1" fill="#16234f"/><rect x="21" y="15" width="2" height="1" fill="#ffffff"/><rect x="23" y="15" width="3" height="1" fill="#16234f"/><rect x="26" y="15" width="2" height="1" fill="#ffffff"/><rect x="28" y="15" width="1" height="1" fill="#16234f"/><rect x="3" y="16" width="1" height="1" fill="#16234f"/><rect x="4" y="16" width="3" height="1" fill="#ffffff"/><rect x="7" y="16" width="14" height="1" fill="#16234f"/><rect x="21" y="16" width="7" height="1" fill="#ffffff"/><rect x="28" y="16" width="1" height="1" fill="#16234f"/><rect x="3" y="17" width="1" height="1" fill="#16234f"/><rect x="4" y="17" width="3" height="1" fill="#ffffff"/><rect x="7" y="17" width="14" height="1" fill="#16234f"/><rect x="21" y="17" width="7" height="1" fill="#ffffff"/><rect x="28" y="17" width="1" height="1" fill="#16234f"/><rect x="3" y="18" width="1" height="1" fill="#16234f"/><rect x="4" y="18" width="3" height="1" fill="#ffffff"/><rect x="7" y="18" width="14" height="1" fill="#16234f"/><rect x="21" y="18" width="7" height="1" fill="#ffffff"/><rect x="28" y="18" width="1" height="1" fill="#16234f"/><rect x="3" y="19" width="1" height="1" fill="#16234f"/><rect x="4" y="19" width="3" height="1" fill="#ffffff"/><rect x="7" y="19" width="14" height="1" fill="#16234f"/><rect x="21" y="19" width="2" height="1" fill="#ffffff"/><rect x="23" y="19" width="3" height="1" fill="#16234f"/><rect x="26" y="19" width="2" height="1" fill="#ffffff"/><rect x="28" y="19" width="1" height="1" fill="#16234f"/><rect x="3" y="20" width="1" height="1" fill="#16234f"/><rect x="4" y="20" width="3" height="1" fill="#ffffff"/><rect x="7" y="20" width="14" height="1" fill="#16234f"/><rect x="21" y="20" width="2" height="1" fill="#ffffff"/><rect x="23" y="20" width="3" height="1" fill="#16234f"/><rect x="26" y="20" width="2" height="1" fill="#ffffff"/><rect x="28" y="20" width="1" height="1" fill="#16234f"/><rect x="3" y="21" width="1" height="1" fill="#16234f"/><rect x="4" y="21" width="3" height="1" fill="#ffffff"/><rect x="7" y="21" width="14" height="1" fill="#16234f"/><rect x="21" y="21" width="2" height="1" fill="#ffffff"/><rect x="23" y="21" width="3" height="1" fill="#16234f"/><rect x="26" y="21" width="2" height="1" fill="#ffffff"/><rect x="28" y="21" width="1" height="1" fill="#16234f"/><rect x="3" y="22" width="1" height="1" fill="#16234f"/><rect x="4" y="22" width="3" height="1" fill="#ffffff"/><rect x="7" y="22" width="14" height="1" fill="#16234f"/><rect x="21" y="22" width="7" height="1" fill="#ffffff"/><rect x="28" y="22" width="1" height="1" fill="#16234f"/><rect x="3" y="23" width="1" height="1" fill="#16234f"/><rect x="4" y="23" width="3" height="1" fill="#ffffff"/><rect x="7" y="23" width="14" height="1" fill="#16234f"/><rect x="21" y="23" width="7" height="1" fill="#ffffff"/><rect x="28" y="23" width="1" height="1" fill="#16234f"/><rect x="3" y="24" width="1" height="1" fill="#16234f"/><rect x="4" y="24" width="24" height="1" fill="#ffffff"/><rect x="28" y="24" width="1" height="1" fill="#16234f"/><rect x="3" y="25" width="1" height="1" fill="#16234f"/><rect x="4" y="25" width="24" height="1" fill="#ffffff"/><rect x="28" y="25" width="1" height="1" fill="#16234f"/><rect x="3" y="26" width="2" height="1" fill="#16234f"/><rect x="5" y="26" width="22" height="1" fill="#ffffff"/><rect x="27" y="26" width="2" height="1" fill="#16234f"/><rect x="4" y="27" width="24" height="1" fill="#16234f"/><rect x="8" y="28" width="1" height="1" fill="#16234f"/><rect x="23" y="28" width="1" height="1" fill="#16234f"/></svg>