<svg xmlns="http://www.w3.org/2000/svg" viewBox="0 0 32 32" shape-rendering="crispEdges"><rect x="12" y="6" width="8" height="1" fill="#16234f"/><rect x="3" y="7" width="10" height="1" fill="#16234f"/><rect x="13" y="7" width="6" height="1" fill="#ffffff"/><rect x="19" y="7" width="10" height="1" fill="#16234f"/><rect x="2" y="8" width="2" height="1" fill="#16234f"/><rect x="4" y="8" width="6" height="1" fill="#ffffff"/><rect x="10" y="8" width="2" height="1" fill="#16234f"/><rect x="12" y="8" width="8" height="1" fill="#ffffff"/><rect x="20" y="8" width="2" height="1" fill="#16234f"/><rect x="22" y="8" width="6" height="1" fill="#ffffff"/><rect x="28" y="8" width="2" height="1" fill="#16234f"/><rect x="2" y="9" width="1" height="1" fill="#16234f"/><rect x="3" y="9" width="8" height="1" fill="#ffffff"/><rect x="11" y="9" width="1" height="1" fill="#16234f"/><rect x="12" y="9" width="8" height="1" fill="#ffffff"/><rect x="20" y="9" width="1" height="1" fill="#16234f"/><rect x="21" y="9" width="8" height="1" fill="#ffffff"/><rect x="29" y="9" width="1" height="1" fill="#16234f"/><rect x="2" y="10" width="1" height="1" fill="#16234f"/><rect x="3" y="10" width="8" height="1" fill="#ffffff"/><rect x="11" y="10" width="1" height="1" fill="#16234f"/><rect x="12" y="10" width="2" height="1" fill="#ffffff"/><rect x="14" y="10" width="4" height="1" fill="#16234f"/><rect x="18" y="10" width="2" height="1" fill="#ffffff"/><rect x="20" y="10" width="1" height="1" fill="#16234f"/><rect x="21" y="10" width="8" height="1" fill="#ffffff"/><rect x="29" y="10" width="1" height="1" fill="#16234f"/><rect x="2" y="11" width="1" height="1" fill="#16234f"/><rect x="3" y="11" width="2" height="1" fill="#ffffff"/><rect x="5" y="11" width="4" height="1" fill="#16234f"/><rect x="9" y="11" width="2" height="1" fill="#ffffff"/><rect x="11" y="11" width="1" height="1" fill="#16234f"/><rect x="12" y="11" width="2" height="1" fill="#ffffff"/><rect x="14" y="11" width="4" height="1" fill="#16234f"/><rect x="18" y="11" width="2" height="1" fill="#ffffff"/><rect x="20" y="11" width="1" height="1" fill="#16234f"/><rect x="21" y="11" width="2" height="1" fill="#ffffff"/><rect x="23" y="11" width="4" height="1" fill="#16234f"/><rect x="27" y="11" width="2" height="1" fill="#ffffff"/><rect x="29" y="11" width="1" height="1" fill="#16234f"/><rect x="2" y="12" width="1" height="1" fill="#16234f"/><rect x="3" y="12" width="2" height="1" fill="#ffffff"/><rect x="5" y="12" width="4" height="1" fill="#16234f"/><rect x="9" y="12" width="2" height="1" fill="#ffffff"/><rect x="11" y="12" width="1" height="1" fill="#16234f"/><rect x="12" y="12" width="8" height="1" fill="#ffffff"/><rect x="20" y="12" width="1" height="1" fill="#16234f"/><rect x="21" y="12" width="2" height="1" fill="#ffffff"/><rect x="23" y="12" width="4" height="1" fill="#16234f"/><rect x="27" y="12" width="2" height="1" fill="#ffffff"/><rect x="29" y="12" width="1" height="1" fill="#16234f"/><rect x="2" y="13" width="1" height="1" fill="#16234f"/><rect x="3" y="13" width="8" height="1" fill="#ffffff"/><rect x="11" y="13" width="1" height="1" fill="#16234f"/><rect x="12" y="13" width="8" height="1" fill="#ffffff"/><rect x="20" y="13" width="1" height="1" fill="#16234f"/><rect x="21" y="13" width="8" height="1" fill="#ffffff"/><rect x="29" y="13" width="1" height="1" fill="#16234f"/><rect x="2" y="14" width="1" height="1" fill="#16234f"/><rect x="3" y="14" width="8" height="1" fill="#ffffff"/><rect x="11" y="14" width="1" height="1" fill="#16234f"/><rect x="12" y="14" width="8" height="1" fill="#ffffff"/><rect x="20" y="14" width="1" height="1" fill="#16234f"/><rect x="21" y="14" width="8" height="1" fill="#ffffff"/><rect x="29" y="14" width="1" height="1" fill="#16234f"/><rect x="2" y="15" width="1" height="1" fill="#16234f"/><rect x="3" y="15" width="8" height="1" fill="#ffffff"/><rect x="11" y="15" width="1" height="1" fill="#16234f"/><rect x="12" y="15" width="2" height="1" fill="#ffffff"/><rect x="14" y="15" width="4" height="1" fill="#16234f"/><rect x="18" y="15" width="2" height="1" fill="#ffffff"/><rect x="20" y="15" width="1" height="1" fill="#16234f"/><rect x="21" y="15" width="8" height="1" fill="#ffffff"/><rect x="29" y="15" width="1" height="1" fill="#16234f"/><rect x="2" y="16" width="1" height="1" fill="#16234f"/><rect x="3" y="16" width="2" height="1" fill="#ffffff"/><rect x="5" y="16" width="4" height="1" fill="#16234f"/><rect x="9" y="16" width="2" height="1" fill="#ffffff"/><rect x="11" y="16" width="1" height="1" fill="#16234f"/><rect x="12" y="16" width="2" height="1" fill="#ffffff"/><rect x="14" y="16" width="4" height="1" fill="#16234f"/><rect x="18" y="16" width="2" height="1" fill="#ffffff"/><rect x="20" y="16" width="1" height="1" fill="#16234f"/><rect x="21" y="16" width="2" height="1" fill="#ffffff"/><rect x="23" y="16" width="4" height="1" fill="#16234f"/><rect x="27" y="16" width="2" height="1" fill="#ffffff"/><rect x="29" y="16" width="1" height="1" fill="#16234f"/><rect x="2" y="17" width="1" height="1" fill="#16234f"/><rect x="3" y="17" width="2" height="1" fill="#ffffff"/><rect x="5" y="17" width="4" height="1" fill="#16234f"/><rect x="9" y="17" width="2" height="1" fill="#ffffff"/><rect x="11" y="17" width="1" height="1" fill="#16234f"/><rect x="12" y="17" width="8" height="1" fill="#ffffff"/><rect x="20" y="17" width="1" height="1" fill="#16234f"/><rect x="21" y="17" width="2" height="1" fill="#ffffff"/><rect x="23" y="17" width="4" height="1" fill="#16234f"/><rect x="27" y="17" width="2" height="1" fill="#ffffff"/><rect x="29" y="17" width="1" height="1" fill="#16234f"/><rect x="2" y="18" width="1" height="1" fill="#16234f"/><rect x="3" y="18" width="8" height="1" fill="#ffffff"/><rect x="11" y="18" width="1" height="1" fill="#16234f"/><rect x="12" y="18" width="8" height="1" fill="#ffffff"/><rect x="20" y="18" width="1" height="1" fill="#16234f"/><rect x="21" y="18" width="8" height="1" fill="#ffffff"/><rect x="29" y="18" width="1" height="1" fill="#16234f"/><rect x="2" y="19" width="1" height="1" fill="#16234f"/><rect x="3" y="19" width="8" height="1" fill="#ffffff"/><rect x="11" y="19" width="1" height="1" fill="#16234f"/><rect x="12" y="19" width="8" height="1" fill="#ffffff"/><rect x="20" y="19" width="1" height="1" fill="#16234f"/><rect x="21" y="19" width="8" height="1" fill="#ffffff"/><rect x="29" y="19" width="1" height="1" fill="#16234f"/><rect x="2" y="20" width="1" height="1" fill="#16234f"/><rect x="3" y="20" width="8" height="1" fill="#ffffff"/><rect x="11" y="20" width="1" height="1" fill="#16234f"/><rect x="12" y="20" width="8" height="1" fill="#ffffff"/><rect x="20" y="20" width="1" height="1" fill="#16234f"/><rect x="21" y="20" width="8" height="1" fill="#ffffff"/><rect x="29" y="20" width="1" height="1" fill="#16234f"/><rect x="2" y="21" width="1" height="1" fill="#16234f"/><rect x="3" y="21" width="8" height="1" fill="#ffffff"/><rect x="11" y="21" width="1" height="1" fill="#16234f"/><rect x="12" y="21" width="8" height="1" fill="#ffffff"/><rect x="20" y="21" width="1" height="1" fill="#16234f"/><rect x="21" y="21" width="8" height="1" fill="#ffffff"/><rect x="29" y="21" width="1" height="1" fill="#16234f"/><rect x="2" y="22" width="1" height="1" fill="#16234f"/><rect x="3" y="22" width="8" height="1" fill="#ffffff"/><rect x="11" y="22" width="1" height="1" fill="#16234f"/><rect x="12" y="22" width="8" height="1" fill="#ffffff"/><rect x="20" y="22" width="1" height="1" fill="#16234f"/><rect x="21" y="22" width="8" height="1" fill="#ffffff"/><rect x="29" y="22" width="1" height="1" fill="#16234f"/><rect x="2" y="23" width="1" height="1" fill="#16234f"/><rect x="3" y="23" width="8" height="1" fill="#ffffff"/><rect x="11" y="23" width="1" height="1" fill="#16234f"/><rect x="12" y="23" width="8" height="1" fill="#ffffff"/><rect x="20" y="23" width="1" height="1" fill="#16234f"/><rect x="21" y="23" width="8" height="1" fill="#ffffff"/><rect x="29" y="23" width="1" height="1" fill="#16234f"/><rect x="2" y="24" width="2" height="1" fill="#16234f"/><rect x="4" y="24" width="6" height="1" fill="#ffffff"/><rect x="10" y="24" width="3" height="1" fill="#16234f"/><rect x="13" y="24" width="6" height="1" fill="#ffffff"/><rect x="19" y="24" width="3" height="1" fill="#16234f"/><rect x="22" y="24" width="6" height="1" fill="#ffffff"/><rect x="28" y="24" width="2" height="1" fill="#16234f"/><rect x="3" y="25" width="8" height="1" fill="#16234f"/><rect x="12" y="25" width="8" height="1" fill="#16234f"/><rect x="21" y="25" width="8" height="1" fill="#16234f"/></svg>