<svg xmlns="http://www.w3.org/2000/svg" viewBox="0 0 32 32" shape-rendering="crispEdges"><rect x="7" y="3" width="18" height="1" fill="#16234f"/><rect x="7" y="4" width="1" height="1" fill="#16234f"/><rect x="8" y="4" width="16" height="1" fill="#ffffff"/><rect x="24" y="4" width="1" height="1" fill="#16234f"/><rect x="7" y="5" width="1" height="1" fill="#16234f"/><rect x="8" y="5" width="16" height="1" fill="#ffffff"/><rect x="24" y="5" width="1" height="1" fill="#16234f"/><rect x="7" y="6" width="1" height="1" fill="#16234f"/><rect x="8" y="6" width="16" height="1" fill="#ffffff"/><rect x="24" y="6" width="1" height="1" fill="#16234f"/><rect x="7" y="7" width="6" height="1" fill="#16234f"/><rect x="13" y="7" width="6" height="1" fill="#ffffff"/><rect x="19" y="7" width="6" height="1" fill="#16234f"/><rect x="9" y="8" width="1" height="1" fill="#16234f"/><rect x="10" y="8" width="13" height="1" fill="#ffffff"/><rect x="23" y="8" width="1" height="1" fill="#16234f"/><rect x="9" y="9" width="1" height="1" fill="#16234f"/><rect x="10" y="9" width="13" height="1" fill="#ffffff"/><rect x="23" y="9" width="1" height="1" fill="#16234f"/><rect x="9" y="10" width="1" height="1" fill="#16234f"/><rect x="10" y="10" width="13" height="1" fill="#ffffff"/><rect x="23" y="10" width="1" height="1" fill="#16234f"/><rect x="9" y="11" width="1" height="1" fill="#16234f"/><rect x="10" y="11" width="2" height="1" fill="#ffffff"/><rect x="12" y="11" width="9" height="1" fill="#16234f"/><rect x="21" y="11" width="2" height="1" fill="#ffffff"/><rect x="23" y="11" width="1" height="1" fill="#16234f"/><rect x="9" y="12" width="1" height="1" fill="#16234f"/><rect x="10" y="12" width="2" height="1" fill="#ffffff"/><rect x="12" y="12" width="9" height="1" fill="#16234f"/><rect x="21" y="12" width="2" height="1" fill="#ffffff"/><rect x="23" y="12" width="1" height="1" fill="#16234f"/><rect x="9" y="13" width="1" height="1" fill="#16234f"/><rect x="10" y="13" width="13" height="1" fill="#ffffff"/><rect x="23" y="13" width="1" height="1" fill="#16234f"/><rect x="9" y="14" width="1" height="1" fill="#16234f"/><rect x="10" y="14" width="13" height="1" fill="#ffffff"/><rect x="23" y="14" width="1" height="1" fill="#16234f"/><rect x="9" y="15" width="2" height="1" fill="#16234f"/><rect x="11" y="15" width="11" height="1" fill="#ffffff"/><rect x="22" y="15" width="2" height="1" fill="#16234f"/><rect x="10" y="16" width="1" height="1" fill="#16234f"/><rect x="11" y="16" width="11" height="1" fill="#ffffff"/><rect x="22" y="16" width="1" height="1" fill="#16234f"/><rect x="10" y="17" width="1" height="1" fill="#16234f"/><rect x="11" y="17" width="2" height="1" fill="#ffffff"/><rect x="13" y="17" width="1" height="1" fill="#16234f"/><rect x="14" y="17" width="5" height="1" fill="#ffffff"/><rect x="19" y="17" width="1" height="1" fill="#16234f"/><rect x="20" y="17" width="2" height="1" fill="#ffffff"/><rect x="22" y="17" width="1" height="1" fill="#16234f"/><rect x="10" y="18" width="1" height="1" fill="#16234f"/><rect x="11" y="18" width="3" height="1" fill="#ffffff"/><rect x="14" y="18" width="1" height="1" fill="#16234f"/><rect x="15" y="18" width="3" height="1" fill="#ffffff"/><rect x="18" y="18" width="1" height="1" fill="#16234f"/><rect x="19" y="18" width="3" height="1" fill="#ffffff"/><rect x="22" y="18" width="1" height="1" fill="#16234f"/><rect x="10" y="19" width="1" height="1" fill="#16234f"/><rect x="11" y="19" width="4" height="1" fill="#ffffff"/><rect x="15" y="19" width="1" height="1" fill="#16234f"/><rect x="16" y="19" width="1" height="1" fill="#ffffff"/><rect x="17" y="19" width="1" height="1" fill="#16234f"/><rect x="18" y="19" width="4" height="1" fill="#ffffff"/><rect x="22" y="19" width="1" height="1" fill="#16234f"/><rect x="10" y="20" width="1" height="1" fill="#16234f"/><rect x="11" y="20" width="5" height="1" fill="#ffffff"/><rect x="16" y="20" width="1" height="1" fill="#16234f"/><rect x="17" y="20" width="5" height="1" fill="#ffffff"/><rect x="22" y="20" width="1" height="1" fill="#16234f"/><rect x="10" y="21" width="2" height="1" fill="#16234f"/><rect x="12" y="21" width="3" height="1" fill="#ffffff"/><rect x="15" y="21" width="1" height="1" fill="#16234f"/><rect x="16" y="21" width="1" height="1" fill="#ffffff"/><rect x="17" y="21" width="1" height="1" fill="#16234f"/><rect x="18" y="21" width="3" height="1" fill="#ffffff"/><rect x="21" y="21" width="2" height="1" fill="#16234f"/><rect x="11" y="22" width="1" height="1" fill="#16234f"/><rect x="12" y="22" width="2" height="1" fill="#ffffff"/><rect x="14" y="22" width="1" height="1" fill="#16234f"/><rect x="15" y="22" width="3" height="1" fill="#ffffff"/><rect x="18" y="22" width="1" height="1" fill="#16234f"/><rect x="19" y="22" width="2" height="1" fill="#ffffff"/><rect x="21" y="22" width="1" height="1" fill="#16234f"/><rect x="11" y="23" width="1" height="1" fill="#16234f"/><rect x="12" y="23" width="9" height="1" fill="#ffffff"/><rect x="21" y="23" width="1" height="1" fill="#16234f"/><rect x="10" y="24" width="13" height="1" fill="#16234f"/><rect x="10" y="25" width="1" height="1" fill="#16234f"/><rect x="11" y="25" width="11" height="1" fill="#ffffff"/><rect x="22" y="25" width="1" height="1" fill="#16234f"/><rect x="8" y="26" width="3" height="1" fill="#16234f"/><rect x="11" y="26" width="11" height="1" fill="#ffffff"/><rect x="22" y="26" width="3" height="1" fill="#16234f"/><rect x="8" y="27" width="1" height="1" fill="#16234f"/><rect x="9" y="27" width="15" height="1" fill="#ffffff"/><rect x="24" y="27" width="1" height="1" fill="#16234f"/><rect x="8" y="28" width="1" height="1" fill="#16234f"/><rect x="9" y="28" width="15" height="1" fill="#ffffff"/><rect x="24" y="28" width="1" height="1" fill="#16234f"/><rect x="8" y="29" width="1" height="1" fill="#16234f"/><rect x="9" y="29" width="15" height="1" fill="#ffffff"/><rect x="24" y="29" width="1" height="1" fill="#16234f"/><rect x="8" y="30" width="17" height="1" fill="#16234f"/></svg>