<svg xmlns="http://www.w3.org/2000/svg" viewBox="0 0 32 32" shape-rendering="crispEdges"><rect x="11" y="3" width="10" height="1" fill="#16234f"/><rect x="11" y="4" width="1" height="1" fill="#16234f"/><rect x="12" y="4" width="8" height="1" fill="#ffffff"/><rect x="20" y="4" width="1" height="1" fill="#16234f"/><rect x="11" y="5" width="1" height="1" fill="#16234f"/><rect x="12" y="5" width="8" height="1" fill="#ffffff"/><rect x="20" y="5" width="1" height="1" fill="#16234f"/><rect x="11" y="6" width="1" height="1" fill="#16234f"/><rect x="12" y="6" width="8" height="1" fill="#ffffff"/><rect x="20" y="6" width="1" height="1" fill="#16234f"/><rect x="11" y="7" width="1" height="1" fill="#16234f"/><rect x="12" y="7" width="8" height="1" fill="#ffffff"/><rect x="20" y="7" width="1" height="1" fill="#16234f"/><rect x="11" y="8" width="10" height="1" fill="#16234f"/><rect x="11" y="9" width="10" height="1" fill="#16234f"/><rect x="11" y="10" width="1" height="1" fill="#16234f"/><rect x="12" y="10" width="8" height="1" fill="#ffffff"/><rect x="20" y="10" width="1" height="1" fill="#16234f"/><rect x="11" y="11" width="1" height="1" fill="#16234f"/><rect x="12" y="11" width="8" height="1" fill="#ffffff"/><rect x="20" y="11" width="1" height="1" fill="#16234f"/><rect x="11" y="12" width="1" height="1" fill="#16234f"/><rect x="12" y="12" width="8" height="1" fill="#ffffff"/><rect x="20" y="12" width="1" height="1" fill="#16234f"/><rect x="11" y="13" width="1" height="1" fill="#16234f"/><rect x="12" y="13" width="8" height="1" fill="#ffffff"/><rect x="20" y="13" width="1" height="1" fill="#16234f"/><rect x="11" y="14" width="1" height="1" fill="#16234f"/><rect x="12" y="14" width="8" height="1" fill="#ffffff"/><rect x="20" y="14" width="1" height="1" fill="#16234f"/><rect x="11" y="15" width="1" height="1" fill="#16234f"/><rect x="12" y="15" width="8" height="1" fill="#ffffff"/><rect x="20" y="15" width="1" height="1" fill="#16234f"/><rect x="11" y="16" width="1" height="1" fill="#16234f"/><rect x="12" y="16" width="8" height="1" fill="#ffffff"/><rect x="20" y="16" width="1" height="1" fill="#16234f"/><rect x="11" y="17" width="1" height="1" fill="#16234f"/><rect x="12" y="17" width="8" height="1" fill="#ffffff"/><rect x="20" y="17" width="1" height="1" fill="#16234f"/><rect x="11" y="18" width="1" height="1" fill="#16234f"/><rect x="12" y="18" width="8" height="1" fill="#ffffff"/><rect x="20" y="18" width="1" height="1" fill="#16234f"/><rect x="11" y="19" width="1" height="1" fill="#16234f"/><rect x="12" y="19" width="8" height="1" fill="#ffffff"/><rect x="20" y="19" width="1" height="1" fill="#16234f"/><rect x="11" y="20" width="1" height="1" fill="#16234f"/><rect x="12" y="20" width="8" height="1" fill="#ffffff"/><rect x="20" y="20" width="1" height="1" fill="#16234f"/><rect x="11" y="21" width="1" height="1" fill="#16234f"/><rect x="12" y="21" width="8" height="1" fill="#ffffff"/><rect x="20" y="21" width="1" height="1" fill="#16234f"/><rect x="11" y="22" width="1" height="1" fill="#16234f"/><rect x="12" y="22" width="8" height="1" fill="#ffffff"/><rect x="20" y="22" width="1" height="1" fill="#16234f"/><rect x="11" y="23" width="1" height="1" fill="#16234f"/><rect x="12" y="23" width="8" height="1" fill="#ffffff"/><rect x="20" y="23" width="1" height="1" fill="#16234f"/><rect x="11" y="24" width="1" height="1" fill="#16234f"/><rect x="12" y="24" width="8" height="1" fill="#ffffff"/><rect x="20" y="24" width="1" height="1" fill="#16234f"/><rect x="11" y="25" width="1" height="1" fill="#16234f"/><rect x="12" y="25" width="8" height="1" fill="#ffffff"/><rect x="20" y="25" width="1" height="1" fill="#16234f"/><rect x="11" y="26" width="2" height="1" fill="#16234f"/><rect x="13" y="26" width="6" height="1" fill="#ffffff"/><rect x="19" y="26" width="2" height="1" fill="#16234f"/><rect x="12" y="27" width="2" height="1" fill="#16234f"/><rect x="14" y="27" width="4" height="1" fill="#ffffff"/><rect x="18" y="27" width="2" height="1" fill="#16234f"/><rect x="13" y="28" width="2" height="1" fill="#16234f"/><rect x="15" y="28" width="2" height="1" fill="#ffffff"/><rect x="17" y="28" width="2" height="1" fill="#16234f"/><rect x="14" y="29" width="4" height="1" fill="#16234f"/></svg>