<svg xmlns="http://www.w3.org/2000/svg" viewBox="0 0 32 32" shape-rendering="crispEdges"><rect x="20" y="6" width="8" height="1" fill="#16234f"/><rect x="20" y="7" width="8" height="1" fill="#16234f"/><rect x="7" y="8" width="3" height="1" fill="#16234f"/><rect x="26" y="8" width="1" height="1" fill="#16234f"/><rect x="6" y="9" width="2" height="1" fill="#16234f"/><rect x="8" y="9" width="1" height="1" fill="#ffffff"/><rect x="9" y="9" width="1" height="1" fill="#16234f"/><rect x="24" y="9" width="2" height="1" fill="#16234f"/><rect x="5" y="10" width="2" height="1" fill="#16234f"/><rect x="7" y="10" width="2" height="1" fill="#ffffff"/><rect x="9" y="10" width="1" height="1" fill="#16234f"/><rect x="23" y="10" width="1" height="1" fill="#16234f"/><rect x="4" y="11" width="2" height="1" fill="#16234f"/><rect x="6" y="11" width="3" height="1" fill="#ffffff"/><rect x="9" y="11" width="1" height="1" fill="#16234f"/><rect x="22" y="11" width="1" height="1" fill="#16234f"/><rect x="3" y="12" width="2" height="1" fill="#16234f"/><rect x="5" y="12" width="4" height="1" fill="#ffffff"/><rect x="9" y="12" width="1" height="1" fill="#16234f"/><rect x="20" y="12" width="8" height="1" fill="#16234f"/><rect x="3" y="13" width="1" height="1" fill="#16234f"/><rect x="4" y="13" width="4" height="1" fill="#ffffff"/><rect x="8" y="13" width="2" height="1" fill="#16234f"/><rect x="20" y="13" width="8" height="1" fill="#16234f"/><rect x="3" y="14" width="1" height="1" fill="#16234f"/><rect x="4" y="14" width="5" height="1" fill="#ffffff"/><rect x="9" y="14" width="1" height="1" fill="#16234f"/><rect x="3" y="15" width="1" height="1" fill="#16234f"/><rect x="4" y="15" width="5" height="1" fill="#ffffff"/><rect x="9" y="15" width="1" height="1" fill="#16234f"/><rect x="2" y="16" width="2" height="1" fill="#16234f"/><rect x="4" y="16" width="5" height="1" fill="#ffffff"/><rect x="9" y="16" width="1" height="1" fill="#16234f"/><rect x="2" y="17" width="1" height="1" fill="#16234f"/><rect x="3" y="17" width="6" height="1" fill="#ffffff"/><rect x="9" y="17" width="2" height="1" fill="#16234f"/><rect x="2" y="18" width="2" height="1" fill="#16234f"/><rect x="4" y="18" width="6" height="1" fill="#ffffff"/><rect x="10" y="18" width="2" height="1" fill="#16234f"/><rect x="3" y="19" width="1" height="1" fill="#16234f"/><rect x="4" y="19" width="7" height="1" fill="#ffffff"/><rect x="11" y="19" width="2" height="1" fill="#16234f"/><rect x="3" y="20" width="1" height="1" fill="#16234f"/><rect x="4" y="20" width="8" height="1" fill="#ffffff"/><rect x="12" y="20" width="2" height="1" fill="#16234f"/><rect x="3" y="21" width="1" height="1" fill="#16234f"/><rect x="4" y="21" width="9" height="1" fill="#ffffff"/><rect x="13" y="21" width="8" height="1" fill="#16234f"/><rect x="3" y="22" width="2" height="1" fill="#16234f"/><rect x="5" y="22" width="12" height="1" fill="#ffffff"/><rect x="17" y="22" width="1" height="1" fill="#16234f"/><rect x="18" y="22" width="2" height="1" fill="#ffffff"/><rect x="20" y="22" width="1" height="1" fill="#16234f"/><rect x="4" y="23" width="2" height="1" fill="#16234f"/><rect x="6" y="23" width="13" height="1" fill="#ffffff"/><rect x="19" y="23" width="2" height="1" fill="#16234f"/><rect x="5" y="24" width="2" height="1" fill="#16234f"/><rect x="7" y="24" width="11" height="1" fill="#ffffff"/><rect x="18" y="24" width="2" height="1" fill="#16234f"/><rect x="6" y="25" width="2" height="1" fill="#16234f"/><rect x="8" y="25" width="9" height="1" fill="#ffffff"/><rect x="17" y="25" width="2" height="1" fill="#16234f"/><rect x="7" y="26" width="5" height="1" fill="#16234f"/><rect x="12" y="26" width="1" height="1" fill="#ffffff"/><rect x="13" y="26" width="5" height="1" fill="#16234f"/><rect x="11" y="27" width="3" height="1" fill="#16234f"/></svg>