<svg xmlns="http://www.w3.org/2000/svg" viewBox="0 0 64 64" shape-rendering="crispEdges"><rect x="36" y="4" width="4" height="4" fill="#16234f"/><rect x="40" y="4" width="4" height="4" fill="#16234f"/><rect x="44" y="4" width="4" height="4" fill="#16234f"/><rect x="48" y="4" width="4" height="4" fill="#16234f"/><rect x="52" y="4" width="4" height="4" fill="#16234f"/><rect x="48" y="8" width="4" height="4" fill="#16234f"/><rect x="8" y="12" width="4" height="4" fill="#16234f"/><rect x="12" y="12" width="4" height="4" fill="#16234f"/><rect x="16" y="12" width="4" height="4" fill="#16234f"/><rect x="20" y="12" width="4" height="4" fill="#16234f"/><rect x="44" y="12" width="4" height="4" fill="#16234f"/><rect x="4" y="16" width="4" height="4" fill="#16234f"/><rect x="8" y="16" width="4" height="4" fill="#ffffff"/><rect x="12" y="16" width="4" height="4" fill="#ffffff"/><rect x="16" y="16" width="4" height="4" fill="#ffffff"/><rect x="20" y="16" width="4" height="4" fill="#ffffff"/><rect x="24" y="16" width="4" height="4" fill="#16234f"/><rect x="40" y="16" width="4" height="4" fill="#16234f"/><rect x="4" y="20" width="4" height="4" fill="#16234f"/><rect x="8" y="20" width="4" height="4" fill="#ffffff"/><rect x="12" y="20" width="4" height="4" fill="#ffffff"/><rect x="16" y="20" width="4" height="4" fill="#ffffff"/><rect x="20" y="20" width="4" height="4" fill="#ffffff"/><rect x="24" y="20" width="4" height="4" fill="#16234f"/><rect x="36" y="20" width="4" height="4" fill="#16234f"/><rect x="40" y="20" width="4" height="4" fill="#16234f"/><rect x="44" y="20" width="4" height="4" fill="#16234f"/><rect x="48" y="20" width="4" height="4" fill="#16234f"/><rect x="52" y="20" width="4" height="4" fill="#16234f"/><rect x="4" y="24" width="4" height="4" fill="#16234f"/><rect x="8" y="24" width="4" height="4" fill="#ffffff"/><rect x="12" y="24" width="4" height="4" fill="#ffffff"/><rect x="16" y="24" width="4" height="4" fill="#ffffff"/><rect x="20" y="24" width="4" height="4" fill="#ffffff"/><rect x="24" y="24" width="4" height="4" fill="#16234f"/><rect x="4" y="28" width="4" height="4" fill="#16234f"/><rect x="8" y="28" width="4" height="4" fill="#ffffff"/><rect x="12" y="28" width="4" height="4" fill="#ffffff"/><rect x="16" y="28" width="4" height="4" fill="#ffffff"/><rect x="20" y="28" width="4" height="4" fill="#ffffff"/><rect x="24" y="28" width="4" height="4" fill="#16234f"/><rect x="4" y="32" width="4" height="4" fill="#16234f"/><rect x="8" y="32" width="4" height="4" fill="#ffffff"/><rect x="12" y="32" width="4" height="4" fill="#ffffff"/><rect x="16" y="32" width="4" height="4" fill="#ffffff"/><rect x="20" y="32" width="4" height="4" fill="#ffffff"/><rect x="24" y="32" width="4" height="4" fill="#16234f"/><rect x="8" y="36" width="4" height="4" fill="#16234f"/><rect x="12" y="36" width="4" height="4" fill="#16234f"/><rect x="16" y="36" width="4" height="4" fill="#16234f"/><rect x="20" y="36" width="4" height="4" fill="#16234f"/></svg>