<svg xmlns="http://www.w3.org/2000/svg" viewBox="0 0 32 32" shape-rendering="crispEdges"><rect x="12" y="3" width="8" height="1" fill="#16234f"/><rect x="12" y="4" width="2" height="1" fill="#16234f"/><rect x="14" y="4" width="4" height="1" fill="#ffffff"/><rect x="18" y="4" width="2" height="1" fill="#16234f"/><rect x="6" y="5" width="8" height="1" fill="#16234f"/><rect x="14" y="5" width="4" height="1" fill="#ffffff"/><rect x="18" y="5" width="8" height="1" fill="#16234f"/><rect x="5" y="6" width="2" height="1" fill="#16234f"/><rect x="7" y="6" width="5" height="1" fill="#ffffff"/><rect x="12" y="6" width="2" height="1" fill="#16234f"/><rect x="14" y="6" width="4" height="1" fill="#ffffff"/><rect x="18" y="6" width="2" height="1" fill="#16234f"/><rect x="20" y="6" width="5" height="1" fill="#ffffff"/><rect x="25" y="6" width="2" height="1" fill="#16234f"/><rect x="5" y="7" width="1" height="1" fill="#16234f"/><rect x="6" y="7" width="20" height="1" fill="#ffffff"/><rect x="26" y="7" width="1" height="1" fill="#16234f"/><rect x="5" y="8" width="1" height="1" fill="#16234f"/><rect x="6" y="8" width="20" height="1" fill="#ffffff"/><rect x="26" y="8" width="1" height="1" fill="#16234f"/><rect x="5" y="9" width="1" height="1" fill="#16234f"/><rect x="6" y="9" width="20" height="1" fill="#ffffff"/><rect x="26" y="9" width="1" height="1" fill="#16234f"/><rect x="5" y="10" width="1" height="1" fill="#16234f"/><rect x="6" y="10" width="20" height="1" fill="#ffffff"/><rect x="26" y="10" width="1" height="1" fill="#16234f"/><rect x="5" y="11" width="1" height="1" fill="#16234f"/><rect x="6" y="11" width="20" height="1" fill="#ffffff"/><rect x="26" y="11" width="1" height="1" fill="#16234f"/><rect x="5" y="12" width="1" height="1" fill="#16234f"/><rect x="6" y="12" width="4" height="1" fill="#ffffff"/><rect x="10" y="12" width="12" height="1" fill="#16234f"/><rect x="22" y="12" width="4" height="1" fill="#ffffff"/><rect x="26" y="12" width="1" height="1" fill="#16234f"/><rect x="5" y="13" width="1" height="1" fill="#16234f"/><rect x="6" y="13" width="4" height="1" fill="#ffffff"/><rect x="10" y="13" width="12" height="1" fill="#16234f"/><rect x="22" y="13" width="4" height="1" fill="#ffffff"/><rect x="26" y="13" width="1" height="1" fill="#16234f"/><rect x="5" y="14" width="1" height="1" fill="#16234f"/><rect x="6" y="14" width="20" height="1" fill="#ffffff"/><rect x="26" y="14" width="1" height="1" fill="#16234f"/><rect x="5" y="15" width="1" height="1" fill="#16234f"/><rect x="6" y="15" width="20" height="1" fill="#ffffff"/><rect x="26" y="15" width="1" height="1" fill="#16234f"/><rect x="5" y="16" width="1" height="1" fill="#16234f"/><rect x="6" y="16" width="4" height="1" fill="#ffffff"/><rect x="10" y="16" width="12" height="1" fill="#16234f"/><rect x="22" y="16" width="4" height="1" fill="#ffffff"/><rect x="26" y="16" width="1" height="1" fill="#16234f"/><rect x="5" y="17" width="1" height="1" fill="#16234f"/><rect x="6" y="17" width="4" height="1" fill="#ffffff"/><rect x="10" y="17" width="12" height="1" fill="#16234f"/><rect x="22" y="17" width="4" height="1" fill="#ffffff"/><rect x="26" y="17" width="1" height="1" fill="#16234f"/><rect x="5" y="18" width="1" height="1" fill="#16234f"/><rect x="6" y="18" width="20" height="1" fill="#ffffff"/><rect x="26" y="18" width="1" height="1" fill="#16234f"/><rect x="5" y="19" width="1" height="1" fill="#16234f"/><rect x="6" y="19" width="20" height="1" fill="#ffffff"/><rect x="26" y="19" width="1" height="1" fill="#16234f"/><rect x="5" y="20" width="1" height="1" fill="#16234f"/><rect x="6" y="20" width="4" height="1" fill="#ffffff"/><rect x="10" y="20" width="8" height="1" fill="#16234f"/><rect x="18" y="20" width="8" height="1" fill="#ffffff"/><rect x="26" y="20" width="1" height="1" fill="#16234f"/><rect x="5" y="21" width="1" height="1" fill="#16234f"/><rect x="6" y="21" width="4" height="1" fill="#ffffff"/><rect x="10" y="21" width="8" height="1" fill="#16234f"/><rect x="18" y="21" width="8" height="1" fill="#ffffff"/><rect x="26" y="21" width="1" height="1" fill="#16234f"/><rect x="5" y="22" width="1" height="1" fill="#16234f"/><rect x="6" y="22" width="20" height="1" fill="#ffffff"/><rect x="26" y="22" width="1" height="1" fill="#16234f"/><rect x="5" y="23" width="1" height="1" fill="#16234f"/><rect x="6" y="23" width="20" height="1" fill="#ffffff"/><rect x="26" y="23" width="1" height="1" fill="#16234f"/><rect x="5" y="24" width="1" height="1" fill="#16234f"/><rect x="6" y="24" width="20" height="1" fill="#ffffff"/><rect x="26" y="24" width="1" height="1" fill="#16234f"/><rect x="5" y="25" width="1" height="1" fill="#16234f"/><rect x="6" y="25" width="20" height="1" fill="#ffffff"/><rect x="26" y="25" width="1" height="1" fill="#16234f"/><rect x="5" y="26" width="1" height="1" fill="#16234f"/><rect x="6" y="26" width="20" height="1" fill="#ffffff"/><rect x="26" y="26" width="1" height="1" fill="#16234f"/><rect x="5" y="27" width="2" height="1" fill="#16234f"/><rect x="7" y="27" width="18" height="1" fill="#ffffff"/><rect x="25" y="27" width="2" height="1" fill="#16234f"/><rect x="6" y="28" width="20" height="1" fill="#16234f"/></svg>