<svg xmlns="http://www.w3.org/2000/svg" viewBox="0 0 32 32" shape-rendering="crispEdges"><rect x="5" y="8" width="6" height="1" fill="#16234f"/><rect x="21" y="8" width="6" height="1" fill="#16234f"/><rect x="5" y="9" width="1" height="1" fill="#16234f"/><rect x="6" y="9" width="4" height="1" fill="#ffffff"/><rect x="10" y="9" width="1" height="1" fill="#16234f"/><rect x="21" y="9" width="1" height="1" fill="#16234f"/><rect x="22" y="9" width="4" height="1" fill="#ffffff"/><rect x="26" y="9" width="1" height="1" fill="#16234f"/><rect x="5" y="10" width="1" height="1" fill="#16234f"/><rect x="6" y="10" width="4" height="1" fill="#ffffff"/><rect x="10" y="10" width="1" height="1" fill="#16234f"/><rect x="21" y="10" width="1" height="1" fill="#16234f"/><rect x="22" y="10" width="4" height="1" fill="#ffffff"/><rect x="26" y="10" width="1" height="1" fill="#16234f"/><rect x="1" y="11" width="5" height="1" fill="#16234f"/><rect x="6" y="11" width="4" height="1" fill="#ffffff"/><rect x="10" y="11" width="1" height="1" fill="#16234f"/><rect x="21" y="11" width="1" height="1" fill="#16234f"/><rect x="22" y="11" width="4" height="1" fill="#ffffff"/><rect x="26" y="11" width="5" height="1" fill="#16234f"/><rect x="1" y="12" width="1" height="1" fill="#16234f"/><rect x="2" y="12" width="8" height="1" fill="#ffffff"/><rect x="10" y="12" width="1" height="1" fill="#16234f"/><rect x="21" y="12" width="1" height="1" fill="#16234f"/><rect x="22" y="12" width="8" height="1" fill="#ffffff"/><rect x="30" y="12" width="1" height="1" fill="#16234f"/><rect x="1" y="13" width="1" height="1" fill="#16234f"/><rect x="2" y="13" width="8" height="1" fill="#ffffff"/><rect x="10" y="13" width="12" height="1" fill="#16234f"/><rect x="22" y="13" width="8" height="1" fill="#ffffff"/><rect x="30" y="13" width="1" height="1" fill="#16234f"/><rect x="1" y="14" width="1" height="1" fill="#16234f"/><rect x="2" y="14" width="28" height="1" fill="#ffffff"/><rect x="30" y="14" width="1" height="1" fill="#16234f"/><rect x="1" y="15" width="1" height="1" fill="#16234f"/><rect x="2" y="15" width="28" height="1" fill="#ffffff"/><rect x="30" y="15" width="1" height="1" fill="#16234f"/><rect x="1" y="16" width="1" height="1" fill="#16234f"/><rect x="2" y="16" width="28" height="1" fill="#ffffff"/><rect x="30" y="16" width="1" height="1" fill="#16234f"/><rect x="1" y="17" width="1" height="1" fill="#16234f"/><rect x="2" y="17" width="28" height="1" fill="#ffffff"/><rect x="30" y="17" width="1" height="1" fill="#16234f"/><rect x="1" y="18" width="1" height="1" fill="#16234f"/><rect x="2" y="18" width="8" height="1" fill="#ffffff"/><rect x="10" y="18" width="12" height="1" fill="#16234f"/><rect x="22" y="18" width="8" height="1" fill="#ffffff"/><rect x="30" y="18" width="1" height="1" fill="#16234f"/><rect x="1" y="19" width="1" height="1" fill="#16234f"/><rect x="2" y="19" width="8" height="1" fill="#ffffff"/><rect x="10" y="19" width="1" height="1" fill="#16234f"/><rect x="21" y="19" width="1" height="1" fill="#16234f"/><rect x="22" y="19" width="8" height="1" fill="#ffffff"/><rect x="30" y="19" width="1" height="1" fill="#16234f"/><rect x="1" y="20" width="5" height="1" fill="#16234f"/><rect x="6" y="20" width="4" height="1" fill="#ffffff"/><rect x="10" y="20" width="1" height="1" fill="#16234f"/><rect x="21" y="20" width="1" height="1" fill="#16234f"/><rect x="22" y="20" width="4" height="1" fill="#ffffff"/><rect x="26" y="20" width="5" height="1" fill="#16234f"/><rect x="5" y="21" width="1" height="1" fill="#16234f"/><rect x="6" y="21" width="4" height="1" fill="#ffffff"/><rect x="10" y="21" width="1" height="1" fill="#16234f"/><rect x="21" y="21" width="1" height="1" fill="#16234f"/><rect x="22" y="21" width="4" height="1" fill="#ffffff"/><rect x="26" y="21" width="1" height="1" fill="#16234f"/><rect x="5" y="22" width="1" height="1" fill="#16234f"/><rect x="6" y="22" width="4" height="1" fill="#ffffff"/><rect x="10" y="22" width="1" height="1" fill="#16234f"/><rect x="21" y="22" width="1" height="1" fill="#16234f"/><rect x="22" y="22" width="4" height="1" fill="#ffffff"/><rect x="26" y="22" width="1" height="1" fill="#16234f"/><rect x="5" y="23" width="6" height="1" fill="#16234f"/><rect x="21" y="23" width="6" height="1" fill="#16234f"/></svg>